<svg width="121" height="51" viewBox="0 0 121 51" fill="none" xmlns="http://www.w3.org/2000/svg">
<g id="Group 6">
<g id="Group 2">
<rect id="Rectangle 1" width="120.283" height="51" rx="25.5" fill="url(#paint0_linear_374_1958)"/>
<path id="Rectangle 3" d="M61.1038 2.88678H94.3019C106.791 2.88678 116.915 13.0111 116.915 25.5C116.915 37.9889 106.791 48.1132 94.3019 48.1132H61.1038V2.88678Z" fill="#1E1E1E"/>
<path id="MK" d="M35.1215 32.4914L44.9841 10.5849H54.8145V40.4151H45.4353V25.2669L38.828 40.4151H31.3827L24.8399 25.2669V40.4151H15.3962V10.5849H25.2911L35.1215 32.4914Z" fill="#1E1E1E"/>
<path id="MK_2" d="M69.283 40.4151V10.5849H78.7266V25.5V40.4151H69.283ZM99.1287 10.5849L88.1058 25.5L99.8378 40.4151H90.3942L78.7266 25.5L89.7496 10.5849H99.1287Z" fill="url(#paint1_linear_374_1958)"/>
</g>
</g>
<defs>
<linearGradient id="paint0_linear_374_1958" x1="60.1415" y1="0" x2="60.1415" y2="51" gradientUnits="userSpaceOnUse">
<stop stop-color="#D5AB2F"/>
<stop offset="0.161458" stop-color="#DAB034"/>
<stop offset="0.515625" stop-color="#FDFF57"/>
<stop offset="0.848958" stop-color="#DAB034"/>
<stop offset="1" stop-color="#D5AB2F"/>
</linearGradient>
<linearGradient id="paint1_linear_374_1958" x1="84.5604" y1="10.5849" x2="84.5604" y2="40.4151" gradientUnits="userSpaceOnUse">
<stop stop-color="#D5AB2F"/>
<stop offset="0.161458" stop-color="#DAB034"/>
<stop offset="0.515625" stop-color="#FDFF57"/>
<stop offset="0.848958" stop-color="#DAB034"/>
<stop offset="1" stop-color="#D5AB2F"/>
</linearGradient>
</defs>
</svg>
